<svg width="24" height="24" viewBox="0 0 24 24" fill="none" xmlns="http://www.w3.org/2000/svg">
<path fill-rule="evenodd" clip-rule="evenodd" d="M7.8 2.25H7.7679C6.95506 2.24999 6.29944 2.24999 5.76853 2.29336C5.22189 2.33803 4.74175 2.43238 4.29754 2.65873C3.59193 3.01825 3.01825 3.59193 2.65873 4.29754C2.43238 4.74175 2.33803 5.22189 2.29336 5.76853C2.24999 6.29944 2.24999 6.95506 2.25 7.76789V7.8V16.2V16.2321C2.24999 17.0449 2.24999 17.7006 2.29336 18.2315C2.33803 18.7781 2.43238 19.2582 2.65873 19.7025C3.01825 20.4081 3.59193 20.9817 4.29754 21.3413C4.74175 21.5676 5.22189 21.662 5.76853 21.7066C6.29944 21.75 6.95505 21.75 7.76788 21.75H7.8H16.2H16.2321C17.045 21.75 17.7006 21.75 18.2315 21.7066C18.7781 21.662 19.2582 21.5676 19.7025 21.3413C20.4081 20.9817 20.9817 20.4081 21.3413 19.7025C21.5676 19.2582 21.662 18.7781 21.7066 18.2315C21.75 17.7006 21.75 17.045 21.75 16.2321V16.2V14C21.75 13.5858 21.4142 13.25 21 13.25C20.5858 13.25 20.25 13.5858 20.25 14V16.2C20.25 17.0525 20.2494 17.6467 20.2116 18.1093C20.1745 18.5632 20.1054 18.824 20.0048 19.0215C19.789 19.4448 19.4448 19.789 19.0215 20.0048C18.824 20.1054 18.5632 20.1745 18.1093 20.2116C17.6467 20.2494 17.0525 20.25 16.2 20.25H7.8C6.94755 20.25 6.35331 20.2494 5.89068 20.2116C5.4368 20.1745 5.17604 20.1054 4.97852 20.0048C4.55516 19.789 4.21095 19.4448 3.99524 19.0215L3.32698 19.362L3.99524 19.0215C3.8946 18.824 3.82546 18.5632 3.78838 18.1093C3.75058 17.6467 3.75 17.0525 3.75 16.2V7.8C3.75 6.94755 3.75058 6.35331 3.78838 5.89068C3.82546 5.4368 3.8946 5.17604 3.99524 4.97852C4.21095 4.55516 4.55516 4.21095 4.97852 3.99524C5.17604 3.8946 5.4368 3.82546 5.89068 3.78838C6.35331 3.75058 6.94755 3.75 7.8 3.75H10C10.4142 3.75 10.75 3.41421 10.75 3C10.75 2.58579 10.4142 2.25 10 2.25H7.8ZM14.25 3C14.25 3.41421 14.5858 3.75 15 3.75H19.1893L9.75 13.1893V9C9.75 8.58579 9.41421 8.25 9 8.25C8.58579 8.25 8.25 8.58579 8.25 9V15C8.25 15.4142 8.58579 15.75 9 15.75H15C15.4142 15.75 15.75 15.4142 15.75 15C15.75 14.5858 15.4142 14.25 15 14.25H10.8107L20.25 4.81066V9C20.25 9.41421 20.5858 9.75 21 9.75C21.4142 9.75 21.75 9.41421 21.75 9V3C21.75 2.58579 21.4142 2.25 21 2.25H15C14.5858 2.25 14.25 2.58579 14.25 3Z" fill="white" fill-opacity="0.54"/>
</svg>
